<mxfile host="app.diagrams.net" agent="Mozilla/5.0 (Windows NT 10.0; Win64; x64) AppleWebKit/537.36 (KHTML, like Gecko) Chrome/123.0.0.0 Safari/537.36" version="27.1.1">
  <diagram name="Page-1" id="_LIuY9f6__BbwyPc3fEQ">
    <mxGraphModel dx="1320" dy="790" grid="1" gridSize="10" guides="1" tooltips="1" connect="1" arrows="1" fold="1" page="1" pageScale="1" pageWidth="850" pageHeight="1100" math="0" shadow="0">
      <root>
        <mxCell id="0" />
        <mxCell id="1" parent="0" />
        <mxCell id="viOhRdZwUwc-gywXv96E-1" value="Initialize" style="ellipse;whiteSpace=wrap;html=1;aspect=fixed;" vertex="1" parent="1">
          <mxGeometry x="360" y="150" width="100" height="100" as="geometry" />
        </mxCell>
        <mxCell id="viOhRdZwUwc-gywXv96E-2" value="Wait" style="ellipse;whiteSpace=wrap;html=1;aspect=fixed;" vertex="1" parent="1">
          <mxGeometry x="580" y="350" width="100" height="100" as="geometry" />
        </mxCell>
        <mxCell id="viOhRdZwUwc-gywXv96E-3" value="Build" style="ellipse;whiteSpace=wrap;html=1;aspect=fixed;" vertex="1" parent="1">
          <mxGeometry x="360" y="550" width="100" height="100" as="geometry" />
        </mxCell>
        <mxCell id="viOhRdZwUwc-gywXv96E-4" value="Send" style="ellipse;whiteSpace=wrap;html=1;aspect=fixed;" vertex="1" parent="1">
          <mxGeometry x="130" y="350" width="100" height="100" as="geometry" />
        </mxCell>
        <mxCell id="viOhRdZwUwc-gywXv96E-5" value="Error" style="ellipse;whiteSpace=wrap;html=1;aspect=fixed;" vertex="1" parent="1">
          <mxGeometry x="360" y="350" width="100" height="100" as="geometry" />
        </mxCell>
        <mxCell id="viOhRdZwUwc-gywXv96E-6" value="" style="endArrow=classic;html=1;rounded=0;exitX=1;exitY=0;exitDx=0;exitDy=0;entryX=0;entryY=0;entryDx=0;entryDy=0;curved=1;" edge="1" parent="1" source="viOhRdZwUwc-gywXv96E-4" target="viOhRdZwUwc-gywXv96E-2">
          <mxGeometry width="50" height="50" relative="1" as="geometry">
            <mxPoint x="300" y="340" as="sourcePoint" />
            <mxPoint x="350" y="290" as="targetPoint" />
            <Array as="points">
              <mxPoint x="410" y="310" />
            </Array>
          </mxGeometry>
        </mxCell>
        <mxCell id="viOhRdZwUwc-gywXv96E-19" value="Packet&lt;div&gt;sent&lt;/div&gt;&lt;div&gt;successfully&lt;/div&gt;" style="edgeLabel;html=1;align=center;verticalAlign=middle;resizable=0;points=[];" vertex="1" connectable="0" parent="viOhRdZwUwc-gywXv96E-6">
          <mxGeometry x="-0.5849" y="-5" relative="1" as="geometry">
            <mxPoint as="offset" />
          </mxGeometry>
        </mxCell>
        <mxCell id="viOhRdZwUwc-gywXv96E-7" value="" style="endArrow=classic;html=1;rounded=0;exitX=0;exitY=0;exitDx=0;exitDy=0;entryX=1;entryY=1;entryDx=0;entryDy=0;" edge="1" parent="1" source="viOhRdZwUwc-gywXv96E-3" target="viOhRdZwUwc-gywXv96E-4">
          <mxGeometry width="50" height="50" relative="1" as="geometry">
            <mxPoint x="330" y="550" as="sourcePoint" />
            <mxPoint x="380" y="500" as="targetPoint" />
          </mxGeometry>
        </mxCell>
        <mxCell id="viOhRdZwUwc-gywXv96E-18" value="Packet&lt;div&gt;created&lt;/div&gt;" style="edgeLabel;html=1;align=center;verticalAlign=middle;resizable=0;points=[];" vertex="1" connectable="0" parent="viOhRdZwUwc-gywXv96E-7">
          <mxGeometry x="-0.0008" y="-1" relative="1" as="geometry">
            <mxPoint as="offset" />
          </mxGeometry>
        </mxCell>
        <mxCell id="viOhRdZwUwc-gywXv96E-8" value="" style="endArrow=classic;html=1;rounded=0;exitX=0;exitY=1;exitDx=0;exitDy=0;entryX=1;entryY=0;entryDx=0;entryDy=0;" edge="1" parent="1" source="viOhRdZwUwc-gywXv96E-2" target="viOhRdZwUwc-gywXv96E-3">
          <mxGeometry width="50" height="50" relative="1" as="geometry">
            <mxPoint x="560" y="550" as="sourcePoint" />
            <mxPoint x="610" y="500" as="targetPoint" />
          </mxGeometry>
        </mxCell>
        <mxCell id="viOhRdZwUwc-gywXv96E-17" value="1 second&lt;div&gt;elapsed&lt;/div&gt;" style="edgeLabel;html=1;align=center;verticalAlign=middle;resizable=0;points=[];" vertex="1" connectable="0" parent="viOhRdZwUwc-gywXv96E-8">
          <mxGeometry x="-0.1838" relative="1" as="geometry">
            <mxPoint as="offset" />
          </mxGeometry>
        </mxCell>
        <mxCell id="viOhRdZwUwc-gywXv96E-9" value="" style="endArrow=classic;html=1;rounded=0;exitX=1;exitY=1;exitDx=0;exitDy=0;entryX=0;entryY=0;entryDx=0;entryDy=0;" edge="1" parent="1" source="viOhRdZwUwc-gywXv96E-1" target="viOhRdZwUwc-gywXv96E-2">
          <mxGeometry width="50" height="50" relative="1" as="geometry">
            <mxPoint x="470" y="300" as="sourcePoint" />
            <mxPoint x="520" y="250" as="targetPoint" />
          </mxGeometry>
        </mxCell>
        <mxCell id="viOhRdZwUwc-gywXv96E-15" value="UART&lt;div&gt;successfully&lt;/div&gt;&lt;div&gt;initialized&lt;/div&gt;" style="edgeLabel;html=1;align=center;verticalAlign=middle;resizable=0;points=[];" vertex="1" connectable="0" parent="viOhRdZwUwc-gywXv96E-9">
          <mxGeometry x="-0.12" y="1" relative="1" as="geometry">
            <mxPoint as="offset" />
          </mxGeometry>
        </mxCell>
        <mxCell id="viOhRdZwUwc-gywXv96E-10" value="" style="endArrow=classic;html=1;rounded=0;exitX=1;exitY=0.5;exitDx=0;exitDy=0;entryX=0;entryY=0.5;entryDx=0;entryDy=0;" edge="1" parent="1" source="viOhRdZwUwc-gywXv96E-4" target="viOhRdZwUwc-gywXv96E-5">
          <mxGeometry width="50" height="50" relative="1" as="geometry">
            <mxPoint x="420" y="520" as="sourcePoint" />
            <mxPoint x="470" y="470" as="targetPoint" />
          </mxGeometry>
        </mxCell>
        <mxCell id="viOhRdZwUwc-gywXv96E-21" value="UART&lt;div&gt;write&lt;/div&gt;&lt;div&gt;failed&lt;/div&gt;" style="edgeLabel;html=1;align=center;verticalAlign=middle;resizable=0;points=[];" vertex="1" connectable="0" parent="viOhRdZwUwc-gywXv96E-10">
          <mxGeometry x="0.0757" relative="1" as="geometry">
            <mxPoint as="offset" />
          </mxGeometry>
        </mxCell>
        <mxCell id="viOhRdZwUwc-gywXv96E-11" value="" style="endArrow=classic;html=1;rounded=0;exitX=0.5;exitY=0;exitDx=0;exitDy=0;entryX=0.5;entryY=1;entryDx=0;entryDy=0;" edge="1" parent="1" source="viOhRdZwUwc-gywXv96E-3" target="viOhRdZwUwc-gywXv96E-5">
          <mxGeometry width="50" height="50" relative="1" as="geometry">
            <mxPoint x="420" y="520" as="sourcePoint" />
            <mxPoint x="470" y="470" as="targetPoint" />
          </mxGeometry>
        </mxCell>
        <mxCell id="viOhRdZwUwc-gywXv96E-22" value="Packet&lt;div&gt;creation&lt;/div&gt;&lt;div&gt;failed&lt;/div&gt;" style="edgeLabel;html=1;align=center;verticalAlign=middle;resizable=0;points=[];" vertex="1" connectable="0" parent="viOhRdZwUwc-gywXv96E-11">
          <mxGeometry x="-0.0354" relative="1" as="geometry">
            <mxPoint as="offset" />
          </mxGeometry>
        </mxCell>
        <mxCell id="viOhRdZwUwc-gywXv96E-13" value="" style="endArrow=classic;html=1;rounded=0;exitX=0;exitY=0;exitDx=0;exitDy=0;entryX=0;entryY=1;entryDx=0;entryDy=0;" edge="1" parent="1" source="viOhRdZwUwc-gywXv96E-5" target="viOhRdZwUwc-gywXv96E-1">
          <mxGeometry width="50" height="50" relative="1" as="geometry">
            <mxPoint x="410" y="520" as="sourcePoint" />
            <mxPoint x="460" y="470" as="targetPoint" />
          </mxGeometry>
        </mxCell>
        <mxCell id="viOhRdZwUwc-gywXv96E-25" value="Error&lt;div&gt;handled&lt;/div&gt;" style="edgeLabel;html=1;align=center;verticalAlign=middle;resizable=0;points=[];" vertex="1" connectable="0" parent="viOhRdZwUwc-gywXv96E-13">
          <mxGeometry x="0.0299" y="-2" relative="1" as="geometry">
            <mxPoint as="offset" />
          </mxGeometry>
        </mxCell>
        <mxCell id="viOhRdZwUwc-gywXv96E-14" value="" style="endArrow=classic;html=1;rounded=0;exitX=1;exitY=1;exitDx=0;exitDy=0;entryX=1;entryY=0;entryDx=0;entryDy=0;" edge="1" parent="1" source="viOhRdZwUwc-gywXv96E-1" target="viOhRdZwUwc-gywXv96E-5">
          <mxGeometry width="50" height="50" relative="1" as="geometry">
            <mxPoint x="420" y="520" as="sourcePoint" />
            <mxPoint x="470" y="470" as="targetPoint" />
          </mxGeometry>
        </mxCell>
        <mxCell id="viOhRdZwUwc-gywXv96E-24" value="UART&lt;div&gt;initialization&lt;/div&gt;&lt;div&gt;failed&lt;/div&gt;" style="edgeLabel;html=1;align=center;verticalAlign=middle;resizable=0;points=[];" vertex="1" connectable="0" parent="viOhRdZwUwc-gywXv96E-14">
          <mxGeometry x="-0.0758" y="1" relative="1" as="geometry">
            <mxPoint as="offset" />
          </mxGeometry>
        </mxCell>
      </root>
    </mxGraphModel>
  </diagram>
</mxfile>
